<svg width="440" height="440" xmlns="http://www.w3.org/2000/svg" xmlns:svg="http://www.w3.org/2000/svg">
 <g class="layer">
  <title>Layer 2</title>
  <path d="m57.5,25l325.00001,0a32.5,32.5 0 0 1 32.5,32.5l0,325.00001a32.5,32.5 0 0 1 -32.5,32.5l-325.00001,0a32.5,32.5 0 0 1 -32.5,-32.5l0,-325.00001a32.5,32.5 0 0 1 32.5,-32.5z" fill="none" id="svg_1" stroke="black" stroke-width="50"/>
 </g>

 <g class="layer">
  <title>Layer 1</title>
  <path d="m161.92712,283.41111c-0.824483,0.824483 -1.875064,1.431375 -3.144941,1.813865c-1.271573,0.390996 -2.592456,0.606892 -3.98133,0.662985c-1.373577,0.057798 -2.619651,0.086698 -3.721229,0.086698c-4.200626,0 -7.425464,-0.996183 -9.689828,-2.980043c-2.267756,-1.98726 -3.918427,-4.510021 -4.970712,-7.544461c-1.04718,-3.027648 -1.74417,-6.373188 -2.067166,-10.023016c-0.334893,-3.637932 -0.673187,-7.110973 -1.001279,-10.434414l-14.740436,-6.793074l-1.32938,0c0,3.100744 0.416494,5.305605 1.240978,6.628184c0.832989,1.320875 1.771364,2.37996 2.815153,3.155142c1.052285,0.770085 1.98726,1.53677 2.820249,2.313657c0.827884,0.775182 1.239282,2.096065 1.239282,3.974529c0,1.545276 -0.328092,2.760746 -0.985981,3.646437c-0.669786,0.885682 -1.490869,1.570775 -2.492157,2.067166c-0.985981,0.503192 -2.099465,0.831284 -3.308143,1.001279c-1.217175,0.168299 -2.432654,0.244795 -3.646437,0.244795c-4.08503,0 -7.427169,-1.427975 -10.02132,-4.312823c-2.600953,-2.869551 -4.668118,-6.281385 -6.216786,-10.266116c-1.543571,-3.97793 -2.730151,-8.115653 -3.564836,-12.430172c-0.824483,-4.309422 -1.509576,-7.889556 -2.067166,-10.752305l-1.322579,-1.336172c-0.115597,-0.108796 -0.831284,-0.605187 -2.155559,-1.482373c-1.320875,-0.890787 -3.00555,-2.02296 -5.054009,-3.399937c-2.038266,-1.380377 -4.340018,-2.905251 -6.874675,-4.561018c-2.541458,-1.648967 -5.076107,-3.311544 -7.624367,-4.965607c-2.527857,-1.654072 -4.972408,-3.231639 -7.286065,-4.731013c-2.318762,-1.485773 -4.309422,-2.728447 -5.96519,-3.721229c-0.438593,-0.217592 -1.235881,-0.66469 -2.398658,-1.324275c-1.159377,-0.66469 -2.37316,-1.325979 -3.646437,-1.990661c-1.266477,-0.661289 -2.487052,-1.327675 -3.641332,-1.98386c-1.162777,-0.661289 -1.961762,-1.099882 -2.403755,-1.32938l-0.496391,0l-0.832989,0l-5.286907,2.653655l-0.679987,0c-1.759467,0 -3.688929,-0.464092 -5.788394,-1.405876c-2.099465,-0.93668 -4.115625,-2.092664 -6.051888,-3.488339c-1.932862,-1.370176 -3.69573,-2.835547 -5.292003,-4.379118c-1.603074,-1.550372 -2.849148,-2.930749 -3.73483,-4.144524c-0.108796,-0.334893 -0.212496,-0.997879 -0.333197,-1.982164c-0.1037,-0.996183 -0.158098,-1.667673 -0.158098,-2.000862c0,-2.08756 0.518489,-3.971129 1.574175,-5.625201c1.050581,-1.655768 2.37656,-3.008942 3.972825,-4.057826c1.599674,-1.052285 3.396537,-1.88697 5.383806,-2.487052c1.98726,-0.603491 3.864029,-1.025082 5.632001,-1.240978l128.891675,-10.767603c0.438593,0 1.540171,-0.030604 3.304743,-0.081601c1.767964,-0.056102 3.758633,-0.1071 5.963494,-0.168299c2.218462,-0.054398 4.387623,-0.105396 6.546583,-0.168299c2.152159,-0.057798 3.83853,-0.081601 5.050609,-0.081601c12.151381,0 24.076664,0.858487 35.779251,2.572053c11.721285,1.71527 23.255581,4.60692 34.628372,8.695341l116.624698,41.584648l9.443328,3.969424c1.103283,0.113901 2.985147,0.355296 5.630297,0.749683c2.650254,0.38249 5.463703,0.798985 8.447146,1.235881c2.981747,0.448794 5.827495,0.856783 8.533843,1.242674c2.708053,0.385891 4.562714,0.640887 5.552096,0.747987c0.447089,0.112196 1.128781,0.305994 2.065461,0.581393c0.943481,0.273694 1.941368,0.634086 2.988548,1.070983c1.050581,0.443689 2.09436,0.885682 3.144941,1.32938c1.052285,0.438593 1.907364,0.824483 2.570358,1.157681c-1.660872,0.1105 -3.090543,0.192093 -4.311118,0.248196c-1.210374,0.056102 -2.203156,0.244795 -2.978347,0.579688c-0.764989,0.331493 -1.351478,0.911181 -1.737369,1.742465c-0.385891,0.829588 -0.583089,1.961762 -0.583089,3.389736c0,3.425436 0.855087,6.872979 2.568653,10.351117c1.716966,3.483234 3.814727,6.830478 6.291586,10.028121c2.490452,3.199339 5.139011,6.237188 7.95926,9.108435c2.808352,2.879752 5.331104,5.353202 7.53426,7.450963c-0.438593,0 -1.324275,0.0323 -2.655351,0.095194c-1.315778,0.054398 -2.20146,0.076496 -2.643453,0.076496c-5.190008,0 -10.380016,-1.077784 -15.575121,-3.231639c-5.191704,-2.148758 -10.238912,-4.827912 -15.156931,-8.032356c-4.911209,-3.202739 -9.548724,-6.680877 -13.912553,-10.442911c-4.358724,-3.750137 -8.311146,-7.289465 -11.848787,-10.597608c-2.315361,-0.883986 -4.416522,-1.348078 -6.298387,-1.409277c-1.871664,-0.054398 -4.078229,-0.081601 -6.619679,-0.081601c-14.254246,0 -27.639804,1.383778 -40.182172,4.142828c-12.532175,2.760746 -25.20035,6.789673 -38.009611,12.096983c-12.039184,5.079508 -24.076664,9.268229 -36.120945,12.588269c-12.032384,3.311544 -24.676755,4.967311 -37.933115,4.967311c-4.419923,0 -8.691941,-0.413094 -12.833064,-1.244378c-4.142828,-0.821083 -8.229554,-1.764572 -12.265282,-2.820249c-4.023831,-1.04378 -8.032356,-1.985564 -12.011981,-2.803247c-3.969424,-0.836389 -8.001752,-1.249475 -12.085086,-1.249475c0,2.871247 0.358696,5.110111 1.067583,6.706376c0.730985,1.606475 1.49427,2.957944 2.322162,4.064627c0.832989,1.098178 1.606475,2.041667 2.322162,2.815153c0.720784,0.775182 1.077784,1.767964 1.077784,2.976642c-0.005096,1.664273 -0.416494,2.903546 -1.249475,3.739935l-0.000008,-0.000025z" fill="#010101" id="path3" transform="rotate(38.2256, 224.302, 224.596)"/>
 </g>
</svg>
